Coordinates
version=1
nRows=14
nColumns=24
inDegrees=yes
Units are S.I. units (second, meters, Newtons, ...)
Angles are in degrees.
endheader
time	pelvis_tilt	pelvis_list	pelvis_rotation	pelvis_tx	pelvis_ty	pelvis_tz	hip_flexion_r	hip_adduction_r	hip_rotation_r	knee_angle_r	ankle_angle_r	subtalar_angle_r	mtp_angle_r	hip_flexion_l	hip_adduction_l	hip_rotation_l	knee_angle_l	ankle_angle_l	subtalar_angle_l	mtp_angle_l	lumbar_extension	lumbar_bending	lumbar_rotation	
1.25000000000000	-6.47490916000000	0.51868493000000	3.16736174000000	-0.09196899000000	0.91372470000000	-0.00002989000000	42.57273264000000	-3.70169980000000	-7.29620216000000	-47.06076375000000	24.17425642000000	0.00000044000000	0.00000000000000	12.47290723000000	-1.73661257000000	-1.32759679000000	-58.98128338000000	-0.10092002000000	0.00000010000000	0.00000000000000	-15.47249729000000	-0.23988139000000	-0.61338159000000	
1.26000000000000	-6.60028340000000	0.62382813000000	2.70991494000000	-0.09313655000000	0.91725459000000	0.00195270000000	41.25641590000000	-3.45448453000000	-7.23539742000000	-45.91186315000000	24.07415128000000	0.00000045000000	0.00000000000000	14.24563871000000	-1.76088987000000	-0.94220822000000	-61.20891003000000	1.00065086000000	0.00000028000000	0.00000000000000	-15.35822347000000	-0.48183305000000	-0.15983066000000	
1.27000000000000	-6.75317175000000	0.79164856000000	2.26888064000000	-0.09451835000000	0.92084980000000	0.00381237000000	39.99157442000000	-3.28214308000000	-7.11351858000000	-44.74018458000000	24.09926503000000	0.00000053000000	0.00000000000000	16.06129903000000	-1.71831084000000	-0.43125046000000	-63.00591355000000	2.39372033000000	0.00000046000000	0.00000000000000	-15.25048254000000	-0.79685871000000	0.24793285000000	
1.28000000000000	-6.86170452000000	0.90561287000000	1.84274110000000	-0.09604093000000	0.92483255000000	0.00568994000000	38.66875260000000	-3.05260160000000	-6.96434327000000	-43.53548096000000	24.53760346000000	0.00000050000000	0.00000000000000	17.87733363000000	-1.80060104000000	-0.06345785000000	-64.37039603000000	3.06008021000000	0.00000057000000	0.00000000000000	-15.22840882000000	-1.07349304000000	0.66407226000000	
1.29000000000000	-7.08495258000000	1.22286371000000	1.42168906000000	-0.09792520000000	0.92822318000000	0.00726407000000	37.44089131000000	-3.04005565000000	-6.71668255000000	-42.16459060000000	24.20643407000000	0.00000053000000	0.00000000000000	19.88672265000000	-1.61038197000000	0.10823049000000	-65.46210915000000	3.22737158000000	0.00000060000000	0.00000000000000	-15.07861378000000	-1.52495651000000	0.94356050000000	
1.30000000000000	-7.30487849000000	1.55466872000000	1.05671202000000	-0.09976680000000	0.93164975000000	0.00872219000000	36.26688836000000	-3.10141242000000	-6.48876702000000	-40.93388645000000	24.31898799000000	0.00000047000000	0.00000000000000	21.87395002000000	-1.40133320000000	0.03045211000000	-66.20892474000000	2.96820675000000	0.00000067000000	0.00000000000000	-14.93630304000000	-1.99632301000000	1.20712457000000	
1.31000000000000	-7.49204471000000	1.79981555000000	0.75076856000000	-0.10163650000000	0.93508672000000	0.00995660000000	34.86816315000000	-3.08586760000000	-6.31756764000000	-39.34951858000000	23.89735875000000	0.00000054000000	0.00000000000000	23.84432834000000	-1.25867578000000	-0.24265977000000	-66.75809019000000	2.50901141000000	0.00000072000000	0.00000000000000	-14.84041766000000	-2.34241136000000	1.42176858000000	
1.32000000000000	-7.64498889000000	1.99305419000000	0.49806992000000	-0.10346255000000	0.93846756000000	0.01106870000000	33.40343088000000	-3.06880210000000	-6.22041157000000	-37.72741456000000	23.63637350000000	0.00000049000000	0.00000000000000	25.75526843000000	-1.16701701000000	-0.67864493000000	-67.09018714000000	2.07107203000000	0.00000070000000	0.00000000000000	-14.77941829000000	-2.62369527000000	1.61325330000000	
1.33000000000000	-7.81653755000000	2.19584749000000	0.27674078000000	-0.10532411000000	0.94165756000000	0.01208498000000	31.96505088000000	-3.08546395000000	-6.12869053000000	-36.10957211000000	23.46889233000000	0.00000052000000	0.00000000000000	27.63026281000000	-1.06282993000000	-1.26650530000000	-67.14607685000000	1.65699186000000	0.00000070000000	0.00000000000000	-14.70227172000000	-2.93088763000000	1.80175281000000	
1.34000000000000	-7.97411015000000	2.25714348000000	0.09740386000000	-0.10733181000000	0.94426591000000	0.01288365000000	30.48907311000000	-2.98267522000000	-6.11792137000000	-34.45004972000000	23.17031711000000	0.00000056000000	0.00000000000000	29.63906849000000	-1.11398595000000	-1.88911900000000	-67.32887982000000	2.44351805000000	0.00000072000000	0.00000000000000	-14.62060310000000	-3.02955356000000	1.96024176000000	
1.35000000000000	-8.08634729000000	2.49708572000000	-0.02907664000000	-0.10936702000000	0.94701865000000	0.01355004000000	28.98024681000000	-3.08645792000000	-6.05582684000000	-32.78263609000000	22.89224423000000	0.00000047000000	0.00000000000000	31.38770734000000	-1.04384409000000	-2.71480758000000	-66.95182951000000	2.88941004000000	0.00000065000000	0.00000000000000	-14.63215104000000	-3.34763494000000	2.08849092000000	
1.36000000000000	-8.18098566000000	2.64174925000000	-0.22820712000000	-0.11123904000000	0.94912363000000	0.01427663000000	27.46849721000000	-3.05816874000000	-5.92846399000000	-31.18995129000000	22.35146279000000	0.00000049000000	0.00000000000000	33.11662996000000	-1.18823340000000	-3.65880287000000	-66.52873785000000	4.08228906000000	0.00000057000000	0.00000000000000	-14.57753078000000	-3.55588550000000	2.26638631000000	
1.37000000000000	-8.27834497000000	2.76153377000000	-0.41217251000000	-0.11310623000000	0.95093607000000	0.01499041000000	25.90968439000000	-2.98747838000000	-5.80799919000000	-29.40950521000000	21.77461389000000	0.00000049000000	0.00000000000000	34.77069820000000	-1.41564384000000	-4.64779858000000	-65.85769411000000	5.40123338000000	0.00000050000000	0.00000000000000	-14.53377414000000	-3.74541089000000	2.49182188000000	
1.38000000000000	-8.33016307000000	2.88689167000000	-0.59063874000000	-0.11488199000000	0.95248263000000	0.01570727000000	24.39297717000000	-2.93976736000000	-5.68450777000000	-27.77640370000000	21.44503606000000	0.00000046000000	0.00000000000000	36.26373078000000	-1.64058286000000	-5.61262093000000	-64.90318947000000	6.68237328000000	0.00000041000000	0.00000000000000	-14.51864818000000	-3.94263643000000	2.71398521000000	
